<svg width="18" height="18" viewBox="0 0 18 18" fill="none" xmlns="http://www.w3.org/2000/svg">
<path d="M18 8.98302C18.0093 13.9417 13.9123 17.9965 8.88867 18C6.53515 18.0016 4.38955 17.1231 2.77109 15.6795C2.5837 15.5124 2.57624 15.2243 2.75481 15.0481L3.37835 14.4326C3.54486 14.2682 3.8113 14.2635 3.98701 14.4183C5.28674 15.5628 7.00149 16.2581 8.88212 16.2581C12.9465 16.2581 16.2352 13.0112 16.2352 9C16.2352 4.98814 12.9459 1.74194 8.88212 1.74194C6.8409 1.74194 4.99571 2.56115 3.66424 3.88462L5.4691 5.64155C5.75003 5.91499 5.55384 6.3871 5.15931 6.3871H0.441187C0.197541 6.3871 0 6.19211 0 5.95161V1.35882C0 0.97229 0.47218 0.777339 0.750974 1.04875L2.40899 2.66273C4.0609 1.01856 6.35081 0 8.88212 0C13.9121 0 17.9907 4.02028 18 8.98302ZM11.858 12.2554L12.377 11.5511C12.5203 11.3565 12.4767 11.0842 12.2797 10.9427L9.7645 9.1371V3.91935C9.7645 3.67886 9.56695 3.48387 9.32331 3.48387H8.44094C8.19729 3.48387 7.99975 3.67886 7.99975 3.91935V10.0242L11.2417 12.3515C11.4388 12.4929 11.7147 12.4499 11.858 12.2554Z" fill="white"/>
</svg>
