<svg width="195" height="2" viewBox="0 0 195 2" fill="none" xmlns="http://www.w3.org/2000/svg">
<path d="M0 0.965332H3V1.96533H0V0.965332Z" fill="white"/>
<path d="M6 0.965332H9V1.96533H6V0.965332Z" fill="white"/>
<path d="M12 0.965332H15V1.96533H12V0.965332Z" fill="white"/>
<path d="M18 0.965332H21V1.96533H18V0.965332Z" fill="white"/>
<path d="M24 0.965332H27V1.96533H24V0.965332Z" fill="white"/>
<path d="M30 0.965332H33V1.96533H30V0.965332Z" fill="white"/>
<path d="M36 0.965332H39V1.96533H36V0.965332Z" fill="white"/>
<path d="M42 0.965332H45V1.96533H42V0.965332Z" fill="white"/>
<path d="M48 0.965332H51V1.96533H48V0.965332Z" fill="white"/>
<path d="M54 0.965332H57V1.96533H54V0.965332Z" fill="white"/>
<path d="M60 0.965332H63V1.96533H60V0.965332Z" fill="white"/>
<path d="M66 0.965332H69V1.96533H66V0.965332Z" fill="white"/>
<path d="M72 0.965332H75V1.96533H72V0.965332Z" fill="white"/>
<path d="M78 0.965332H81V1.96533H78V0.965332Z" fill="white"/>
<path d="M84 0.965332H87V1.96533H84V0.965332Z" fill="white"/>
<path d="M90 0.965332H93V1.96533H90V0.965332Z" fill="white"/>
<path d="M96 0.965332H99V1.96533H96V0.965332Z" fill="white"/>
<path d="M102 0.965332H105V1.96533H102V0.965332Z" fill="white"/>
<path d="M108 0.965332H111V1.96533H108V0.965332Z" fill="white"/>
<path d="M114 0.965332H117V1.96533H114V0.965332Z" fill="white"/>
<path d="M120 0.965332H123V1.96533H120V0.965332Z" fill="white"/>
<path d="M126 0.965332H129V1.96533H126V0.965332Z" fill="white"/>
<path d="M132 0.965332H135V1.96533H132V0.965332Z" fill="white"/>
<path d="M138 0.965332H141V1.96533H138V0.965332Z" fill="white"/>
<path d="M144 0.965332H147V1.96533H144V0.965332Z" fill="white"/>
<path d="M150 0.965332H153V1.96533H150V0.965332Z" fill="white"/>
<path d="M156 0.965332H159V1.96533H156V0.965332Z" fill="white"/>
<path d="M162 0.965332H165V1.96533H162V0.965332Z" fill="white"/>
<path d="M168 0.965332H171V1.96533H168V0.965332Z" fill="white"/>
<path d="M174 0.965332H177V1.96533H174V0.965332Z" fill="white"/>
<path d="M180 0.965332H183V1.96533H180V0.965332Z" fill="white"/>
<path d="M186 0.965332H189V1.96533H186V0.965332Z" fill="white"/>
<path d="M192 0.965332H195V1.96533H192V0.965332Z" fill="white"/>
</svg>
