<svg width="105" height="29" viewBox="0 0 105 29" fill="none" xmlns="http://www.w3.org/2000/svg">
<path d="M83.7572 10.0716C83.565 9.9004 83.3247 9.81329 83.0483 9.81329C82.6698 9.81329 82.3635 9.9845 82.1622 10.3059L78.6328 16.0672L75.0102 10.3059C74.8089 9.9845 74.5056 9.81329 74.1241 9.81329C73.8477 9.81329 73.6104 9.9004 73.4152 10.0716C73.2169 10.2488 73.1118 10.4861 73.1118 10.7565V18.9538C73.1118 19.2151 73.2139 19.4494 73.4092 19.6296C73.6014 19.8039 73.8477 19.897 74.1211 19.897C74.3944 19.897 74.6407 19.8039 74.833 19.6296C75.0282 19.4494 75.1304 19.2151 75.1304 18.9538V14.0606L77.6655 17.9595C77.8548 18.308 78.1702 18.4942 78.5817 18.4942C78.9361 18.4942 79.2335 18.338 79.4528 18.0286L82.033 13.9675V18.9508C82.033 19.2121 82.1352 19.4464 82.3304 19.6266C82.5227 19.8009 82.769 19.894 83.0423 19.894C83.3096 19.894 83.5469 19.8039 83.7452 19.6296C83.9464 19.4494 84.0546 19.2151 84.0546 18.9508V10.7535C84.0576 10.4831 83.9525 10.2458 83.7572 10.0716Z" fill="white"/>
<path d="M48.9707 9.81329C48.5922 9.81329 48.2858 9.9845 48.0846 10.3059L44.5551 16.0672L40.9326 10.3059C40.7313 9.9845 40.4249 9.81329 40.0465 9.81329C39.7701 9.81329 39.5328 9.9004 39.3376 10.0716C39.1393 10.2488 39.0342 10.4861 39.0342 10.7565V18.9538C39.0342 19.2151 39.1363 19.4494 39.3346 19.6296C39.5298 19.8069 39.7671 19.897 40.0465 19.897C40.3198 19.897 40.5661 19.8039 40.7583 19.6296C40.9536 19.4494 41.0557 19.2151 41.0557 18.9538V14.0606L43.5909 17.9625C43.7802 18.311 44.0955 18.4972 44.5071 18.4972C44.8615 18.4972 45.1589 18.341 45.3782 18.0316L47.9584 13.9705V18.9538C47.9584 19.2151 48.0605 19.4494 48.2588 19.6296C48.454 19.8069 48.6913 19.897 48.9707 19.897C49.238 19.897 49.4753 19.8069 49.6736 19.6326C49.8748 19.4524 49.983 19.2181 49.983 18.9538V10.7565C49.983 10.4831 49.8778 10.2458 49.6796 10.0716C49.4843 9.89739 49.25 9.81329 48.9707 9.81329Z" fill="white"/>
<path d="M58.4295 12.73C57.9158 12.4326 57.1408 12.2614 56.3088 12.2614C55.5488 12.2614 54.861 12.4266 54.2692 12.751C53.6745 13.0754 53.2029 13.532 52.8665 14.1057C52.53 14.6764 52.3618 15.3433 52.3618 16.0852C52.3618 16.8211 52.542 17.488 52.8965 18.0587C53.2509 18.6324 53.7496 19.086 54.3744 19.4104C54.9961 19.7318 55.714 19.897 56.51 19.897C56.9546 19.897 57.4232 19.8189 57.9068 19.6657C58.3994 19.5095 58.5947 19.3864 58.9131 19.1461C59.2014 18.9388 59.2495 18.6925 59.2405 18.5243C59.2254 18.29 59.0843 18.1248 58.9341 17.9476C58.6247 17.5871 57.9759 17.8514 57.5043 18.0467C57.4172 18.0827 57.3391 18.1158 57.285 18.1338C57.0207 18.2209 56.7593 18.266 56.51 18.266C56.0414 18.266 55.6239 18.1698 55.2665 17.9776C54.861 17.7613 54.6117 17.5451 54.4314 17.2537C54.3533 17.1245 54.2872 16.9894 54.2392 16.8422L59.2255 16.8332C59.5138 16.8332 59.7241 16.671 59.8593 16.5508C60.0305 16.3946 60.1206 16.1904 60.1206 15.9561C60.1206 15.2442 59.9764 14.6014 59.691 14.0517C59.4057 13.496 58.9791 13.0514 58.4295 12.73ZM54.3924 14.9408C54.5606 14.6134 54.8009 14.3611 55.1253 14.1718C55.4467 13.9856 55.8462 13.8895 56.3118 13.8895C56.7744 13.8895 57.243 13.9886 57.4773 14.1328C57.7536 14.304 57.9639 14.5323 58.1141 14.8296C58.1831 14.9648 58.2372 15.121 58.2793 15.2892L54.2512 15.2952C54.2872 15.1691 54.3353 15.0489 54.3924 14.9408Z" fill="white"/>
<path d="M92.8887 12.775C92.276 12.4416 91.5791 12.2704 90.8131 12.2704C90.0502 12.2704 89.3473 12.4386 88.7315 12.775C88.1127 13.1084 87.6171 13.574 87.2567 14.1508C86.8932 14.7305 86.71 15.3913 86.71 16.1152C86.71 16.8361 86.8782 17.491 87.2086 18.0647C87.539 18.6384 88.0016 19.101 88.5753 19.4374C89.155 19.7738 89.8129 19.945 90.5368 19.945C91.2607 19.945 91.9185 19.7738 92.4982 19.4374C92.6244 19.3623 92.7476 19.2842 92.8617 19.1971C92.9068 19.3623 92.9969 19.5125 93.129 19.6327C93.3243 19.8159 93.5706 19.906 93.862 19.906C94.1503 19.906 94.3996 19.8129 94.5949 19.6296C94.7931 19.4464 94.8953 19.2061 94.8953 18.9328V16.1122C94.8953 15.3883 94.712 14.7275 94.3486 14.1477C93.9971 13.571 93.5015 13.1084 92.8887 12.775ZM92.6184 17.1605C92.4382 17.4699 92.1979 17.7072 91.8825 17.8874C91.5701 18.0647 91.2216 18.1518 90.8161 18.1518C90.4196 18.1518 90.0712 18.0647 89.7528 17.8874C89.4344 17.7072 89.1881 17.4699 89.0049 17.1605C88.8186 16.8511 88.7315 16.5087 88.7315 16.1152C88.7315 15.7157 88.8216 15.3703 89.0078 15.0579C89.1941 14.7485 89.4374 14.5082 89.7558 14.331C90.0742 14.1507 90.4226 14.0666 90.8191 14.0666C91.2246 14.0666 91.5731 14.1538 91.8855 14.331C92.1979 14.5082 92.4382 14.7455 92.6214 15.0579C92.8016 15.3643 92.8917 15.7217 92.8917 16.1182C92.8857 16.5027 92.7986 16.8542 92.6184 17.1605Z" fill="white"/>
<path d="M104.736 12.5347C104.613 12.4056 104.384 12.2524 104.012 12.2524C103.733 12.2524 103.483 12.3455 103.294 12.5227C103.102 12.7029 103 12.9493 103 13.2316V15.16H99.5753V13.2316C99.5753 12.9462 99.4792 12.709 99.2899 12.5257C99.1037 12.3455 98.8514 12.2524 98.56 12.2524C98.2747 12.2524 98.0284 12.3485 97.8451 12.5317C97.6649 12.712 97.5718 12.9493 97.5718 13.2316V18.9328C97.5718 19.2061 97.6619 19.4374 97.8421 19.6207C98.0253 19.8099 98.2717 19.912 98.56 19.912C98.8544 19.912 99.1067 19.8129 99.2929 19.6267C99.4762 19.4434 99.5723 19.2031 99.5723 18.9328V16.9623H102.997V18.9328C102.997 19.2061 103.096 19.4464 103.288 19.6297C103.477 19.8129 103.73 19.912 104.012 19.912C104.39 19.912 104.616 19.7528 104.742 19.6176C104.913 19.4314 105 19.2031 105 18.9328V13.2316C105 12.9493 104.91 12.715 104.736 12.5347Z" fill="white"/>
<path d="M70.0419 18.305H69.4622L69.4592 12.8982C69.4592 12.6909 69.4141 12.5347 69.324 12.4296C69.2339 12.3245 69.0957 12.2704 68.9065 12.2704L64.3347 12.2734C64.2386 12.2734 64.1605 12.2854 64.0944 12.3124C64.0284 12.3395 63.9743 12.3785 63.9322 12.4296C63.8902 12.4806 63.8571 12.5437 63.8331 12.6188C63.8091 12.6939 63.7911 12.778 63.7821 12.8711C63.6859 13.6611 63.5868 14.34 63.4787 14.9077C63.3705 15.4754 63.0461 16.9983 62.3793 18.299L61.8476 18.308C61.6944 18.308 61.5923 18.335 61.5412 18.3891C61.4872 18.4431 61.4631 18.5483 61.4631 18.7045L61.4661 20.8582C61.4661 20.9032 61.6013 21.1075 62.3342 21.1075C63.1182 21.1075 63.1843 20.8822 63.1843 20.8372L63.1813 19.882L68.7052 19.894L68.7022 20.9032C68.7022 20.9483 68.8314 21.1496 69.5643 21.1496C70.2942 21.1496 70.4324 20.9393 70.4324 20.8942L70.4354 18.7045C70.4354 18.5483 70.4054 18.4431 70.3453 18.3891C70.2822 18.332 70.1801 18.305 70.0419 18.305ZM64.2597 18.305C64.9625 16.8812 65.335 14.4091 65.4251 13.7573L67.753 13.7633L67.7651 18.305H64.2597Z" fill="white"/>
<path d="M9.09843 25.6342C9.44386 24.9734 9.64812 24.2044 9.64812 23.3814V23.3544C9.64812 23.3514 9.64812 23.3513 9.64812 23.3513C9.64812 23.3483 9.64812 23.3484 9.64812 23.3484V5.25659C9.64812 2.81752 7.90293 0.835022 5.76123 0.835022H4.11516C1.97046 0.835022 0.228271 2.81752 0.228271 5.25659V23.3484V23.3513V23.3544V23.3814C0.228271 24.2044 0.429523 24.9734 0.777961 25.6342C0.795984 25.6673 0.814009 25.7003 0.832032 25.7334C0.871081 25.8024 0.910128 25.8715 0.952181 25.9376C1.78423 27.3133 3.25908 28.2325 4.9412 28.2325C6.62332 28.2325 8.09817 27.3133 8.93022 25.9376C8.97227 25.8715 9.01132 25.8024 9.05037 25.7334C9.06539 25.7003 9.08041 25.6673 9.09843 25.6342Z" fill="white"/>
<path d="M4.93814 28.4548C3.22899 28.4548 1.66702 27.5567 0.756879 26.0518C0.714826 25.9857 0.672772 25.9136 0.633723 25.8415L0.57665 25.7364C0.201178 25.0215 0.00292969 24.2044 0.00292969 23.3784V23.3484V5.25359C0.00292969 2.69137 1.84725 0.60675 4.1151 0.60675H5.76118C8.02903 0.60675 9.87335 2.69137 9.87335 5.25359V23.3814C9.87335 24.2074 9.6751 25.0215 9.29963 25.7394C9.28461 25.7694 9.26658 25.8024 9.24856 25.8325C9.2005 25.9166 9.16145 25.9887 9.1164 26.0578C8.21226 27.5567 6.64429 28.4548 4.93814 28.4548ZM4.11811 1.05732C2.09957 1.05732 0.456501 2.94068 0.456501 5.25359V23.3814C0.456501 24.1353 0.636725 24.8773 0.979156 25.5321L1.02421 25.6162C1.06627 25.6913 1.10231 25.7544 1.14136 25.8175C1.97041 27.1902 3.39119 28.0072 4.94114 28.0072C6.49109 28.0072 7.90887 27.1902 8.73792 25.8205C8.77997 25.7544 8.81602 25.6913 8.85206 25.6252L8.90313 25.5321C9.24556 24.8803 9.42579 24.1354 9.42579 23.3844V5.2566C9.42579 2.94369 7.78272 1.06032 5.76418 1.06032H4.11811V1.05732Z" fill="#1F2C5E"/>
<path d="M27.2115 0.69696H25.5384C23.3606 0.69696 21.5884 2.69147 21.5884 5.13955V23.3575C21.5884 24.7452 22.1561 25.9828 23.0422 26.7998C23.8953 27.6829 25.0728 28.2296 26.3734 28.2296C27.674 28.2296 28.8515 27.6829 29.7046 26.7998C30.5907 25.9828 31.1614 24.7452 31.1614 23.3575V5.13955C31.1584 2.68847 29.3892 0.69696 27.2115 0.69696Z" fill="white"/>
<path d="M26.3702 28.4548C25.0485 28.4548 23.8079 27.9231 22.8768 26.9559C21.9156 26.0728 21.3599 24.7571 21.3599 23.3573V5.13943C21.3599 2.56519 23.2342 0.471558 25.5351 0.471558H27.2082C29.5121 0.471558 31.3835 2.56519 31.3835 5.13943V23.3573C31.3835 24.7571 30.8278 26.0728 29.8546 26.9649C28.9354 27.9231 27.6948 28.4548 26.3702 28.4548ZM25.5351 0.922124C23.4805 0.922124 21.8104 2.81451 21.8104 5.13943V23.3573C21.8104 24.631 22.3151 25.8235 23.1922 26.6315C24.0482 27.5206 25.1747 28.0042 26.3732 28.0042C27.5687 28.0042 28.6951 27.5206 29.5422 26.6435C30.4313 25.8265 30.9359 24.631 30.9359 23.3573V5.13943C30.9359 2.81451 29.2658 0.922124 27.2112 0.922124H25.5351Z" fill="#1F2C5E"/>
<path d="M8.73781 1.96146C8.53655 1.7482 8.31728 1.56196 8.08899 1.39375C7.25695 0.663832 6.18159 0.225281 5.00711 0.225281C2.36679 0.225281 0.225098 2.44507 0.225098 5.18152C0.225098 6.71945 0.900948 8.09218 1.96128 9.00232L12.2823 19.9181C13.1624 20.8492 14.3429 21.3689 15.6044 21.3809C15.6195 21.3809 15.6375 21.3809 15.6525 21.3809C16.8961 21.3809 18.0675 20.8883 18.9537 19.9871L22.393 16.4156L8.73781 1.96146Z" fill="white"/>
<path d="M15.6557 21.6062H15.6046C14.28 21.5912 13.0424 21.0475 12.1203 20.0713L1.79927 9.15552C0.663837 8.1823 0 6.72847 0 5.18152C0 2.32492 2.24683 0 5.0073 0C6.18778 0 7.33523 0.435548 8.23937 1.22554C8.47967 1.40277 8.70195 1.59501 8.9032 1.80828L22.7086 16.4187L19.1191 20.1433C18.1909 21.0865 16.9623 21.6062 15.6557 21.6062ZM5.01031 0.450567C2.49614 0.450567 0.453571 2.57123 0.453571 5.18152C0.453571 6.5963 1.05733 7.92697 2.11166 8.83111L12.4507 19.7619C13.2887 20.648 14.4091 21.1406 15.6106 21.1556L15.6587 21.3809V21.1556C16.8422 21.1556 17.9566 20.684 18.7976 19.8309L22.0868 16.4187L8.57579 2.12067C8.39556 1.92843 8.19431 1.75421 7.96001 1.57999C7.12496 0.847064 6.07965 0.450567 5.01031 0.450567Z" fill="#1F2C5E"/>
<path d="M30.1881 8.11922C30.1911 8.11622 30.1911 8.11321 30.1941 8.11321C30.2812 7.99306 30.3653 7.8669 30.4404 7.73774C30.4765 7.67767 30.5125 7.61759 30.5486 7.55451C30.5606 7.53348 30.5726 7.51246 30.5846 7.49143C30.9421 6.83961 31.1673 6.1217 31.1613 5.37677C31.1613 5.31068 31.1583 5.2446 31.1523 5.17852C31.1523 5.16951 31.1523 5.1635 31.1523 5.15449C31.1523 2.43907 29.0347 0.237305 26.4214 0.237305C25.7185 0.237305 23.9973 0.504638 22.6877 1.86235L8.97241 16.4187L12.4268 20.0142C13.3159 20.9213 14.4934 21.4169 15.7399 21.4169C15.7579 21.4169 15.773 21.4169 15.791 21.4169C17.0586 21.4049 18.2451 20.8793 19.1282 19.9451L29.5693 8.87016C29.7375 8.69294 29.8967 8.50671 30.0499 8.30846C30.098 8.24538 30.14 8.1823 30.1881 8.11922Z" fill="white"/>
<path d="M15.7398 21.6422C14.4302 21.6422 13.1956 21.1196 12.2644 20.1734L8.65991 16.4217L22.5224 1.70915C24.1114 0.0600712 26.19 0.0150146 26.4213 0.0150146C29.1547 0.0150146 31.3775 2.32192 31.3775 5.15749V5.18752C31.3805 5.23558 31.3865 5.30767 31.3865 5.37676C31.3925 6.10668 31.1913 6.85461 30.7827 7.59955L30.7587 7.6386C30.7076 7.72571 30.6716 7.7888 30.6326 7.85188C30.5545 7.98404 30.4673 8.11621 30.3742 8.24236L30.3682 8.25138L30.3322 8.30244C30.2961 8.35351 30.2601 8.40157 30.221 8.44963C30.0708 8.64487 29.9056 8.83712 29.7314 9.02335L19.2903 20.0983C18.3651 21.0805 17.1216 21.6272 15.7939 21.6422H15.7398ZM9.28169 16.4156L12.5889 19.858C13.4329 20.7171 14.5533 21.1917 15.7398 21.1917H15.7849C16.9924 21.1796 18.1188 20.681 18.9599 19.7889L29.401 8.71396C29.5662 8.53974 29.7224 8.35651 29.8666 8.17028C29.9026 8.12522 29.9357 8.08016 29.9657 8.03811L30.0048 7.98404C30.0919 7.86088 30.173 7.74073 30.2451 7.62058C30.2811 7.56051 30.3172 7.50043 30.3502 7.44336L30.3712 7.40732C30.7557 6.70443 30.9389 6.03158 30.9329 5.37976C30.9329 5.31668 30.9299 5.25361 30.9239 5.19353V5.17851L30.9269 5.15147C30.9269 2.56822 28.9054 0.462579 26.4213 0.462579C26.208 0.462579 24.3096 0.507634 22.8498 2.01853L9.28169 16.4156Z" fill="#1F2C5E"/>
</svg>
